<svg width="23" height="23" viewBox="0 0 23 23" fill="none" xmlns="http://www.w3.org/2000/svg">
<path d="M22.7167 9.01853H21.8133V8.97198H11.7199V13.458H18.058C17.1333 16.0694 14.6487 17.944 11.7199 17.944C8.00378 17.944 4.99087 14.9311 4.99087 11.215C4.99087 7.4989 8.00378 4.48599 11.7199 4.48599C13.4352 4.48599 14.9958 5.1331 16.184 6.19011L19.3561 3.01795C17.3531 1.15122 14.6739 0 11.7199 0C5.52639 0 0.504883 5.02151 0.504883 11.215C0.504883 17.4085 5.52639 22.43 11.7199 22.43C17.9133 22.43 22.9348 17.4085 22.9348 11.215C22.9348 10.463 22.8575 9.729 22.7167 9.01853Z" fill="#FFC107"/>
<path d="M1.79785 5.99497L5.48253 8.69722C6.47954 6.2288 8.89413 4.48599 11.7197 4.48599C13.4351 4.48599 14.9956 5.1331 16.1839 6.19011L19.356 3.01795C17.353 1.15122 14.6738 0 11.7197 0C7.41207 0 3.67636 2.43197 1.79785 5.99497Z" fill="#FF3D00"/>
<path d="M11.7195 22.4305C14.6163 22.4305 17.2485 21.3219 19.2386 19.5191L15.7675 16.5819C14.6037 17.4669 13.1816 17.9456 11.7195 17.9445C8.80247 17.9445 6.32564 16.0845 5.39256 13.4888L1.73535 16.3065C3.59143 19.9385 7.36079 22.4305 11.7195 22.4305Z" fill="#4CAF50"/>
<path d="M22.7166 9.01822H21.8132V8.97168H11.7197V13.4577H18.0579C17.6156 14.7005 16.8188 15.7866 15.7661 16.5816L15.7678 16.5805L19.2388 19.5177C18.9932 19.7409 22.9347 16.8222 22.9347 11.2147C22.9347 10.4627 22.8573 9.72869 22.7166 9.01822Z" fill="#1976D2"/>
</svg>
