<svg width="23" height="23" viewBox="0 0 23 23" fill="none" xmlns="http://www.w3.org/2000/svg">
<circle cx="11.3177" cy="11.776" r="11.215" fill="#D9D9D9"/>
<path d="M16.3305 15.7313C16.4709 15.8717 16.5498 16.0621 16.5498 16.2606C16.5498 16.4592 16.4709 16.6496 16.3305 16.79C16.1901 16.9304 15.9997 17.0093 15.8011 17.0093C15.6025 17.0093 15.4121 16.9304 15.2717 16.79L11.3174 12.8347L7.36183 16.7888C7.22142 16.9292 7.03099 17.008 6.83243 17.008C6.63386 17.008 6.44343 16.9292 6.30303 16.7888C6.16262 16.6484 6.08374 16.4579 6.08374 16.2594C6.08374 16.0608 6.16262 15.8704 6.30303 15.73L10.2586 11.7759L6.30427 7.82063C6.16386 7.68023 6.08499 7.48981 6.08499 7.29126C6.08499 7.0927 6.16386 6.90228 6.30427 6.76189C6.44468 6.62149 6.63511 6.54261 6.83367 6.54261C7.03224 6.54261 7.22267 6.62149 7.36307 6.76189L11.3174 10.7172L15.2729 6.76126C15.4133 6.62087 15.6038 6.54199 15.8023 6.54199C16.0009 6.54199 16.1913 6.62087 16.3317 6.76126C16.4721 6.90166 16.551 7.09208 16.551 7.29063C16.551 7.48919 16.4721 7.67961 16.3317 7.82L12.3762 11.7759L16.3305 15.7313Z" fill="white"/>
</svg>
