<svg width="24" height="23" viewBox="0 0 24 23" fill="none" xmlns="http://www.w3.org/2000/svg">
<path d="M12.2346 0.766602C18.7145 0.766602 23.9666 4.85314 23.9666 9.8955C23.9666 14.9368 18.7145 19.0233 12.2357 19.0233C11.5907 19.0222 10.9463 18.9812 10.3063 18.9006L5.38156 22.1161C4.82183 22.4116 4.62408 22.3793 4.85423 21.6554L5.85079 17.5533C2.63319 15.9249 0.504883 13.1032 0.504883 9.8955C0.504883 4.85425 5.75583 0.766602 12.2357 0.766602M18.8363 9.75609L20.4786 8.16787C20.5734 8.06962 20.6262 7.93849 20.6261 7.8021C20.6259 7.6657 20.5727 7.5347 20.4777 7.43668C20.3827 7.33866 20.2533 7.28127 20.1168 7.27661C19.9802 7.27195 19.8472 7.32037 19.7457 7.41168L17.5917 9.49287V7.77305C17.5917 7.63343 17.5361 7.49953 17.4372 7.40081C17.3383 7.30208 17.2042 7.24662 17.0644 7.24662C16.9245 7.24662 16.7904 7.30208 16.6915 7.40081C16.5926 7.49953 16.537 7.63343 16.537 7.77305V10.6249C16.5184 10.7064 16.5184 10.791 16.537 10.8725V12.4775C16.537 12.6171 16.5926 12.751 16.6915 12.8497C16.7904 12.9484 16.9245 13.0039 17.0644 13.0039C17.2042 13.0039 17.3383 12.9484 17.4372 12.8497C17.5361 12.751 17.5917 12.6171 17.5917 12.4775V10.9573L18.0687 10.4967L19.6641 12.7641C19.704 12.8207 19.7546 12.8689 19.8131 12.906C19.8716 12.9431 19.9368 12.9683 20.0051 12.9802C20.0734 12.9921 20.1433 12.9905 20.2109 12.9754C20.2786 12.9604 20.3426 12.9321 20.3993 12.8924C20.456 12.8526 20.5043 12.8021 20.5414 12.7437C20.5786 12.6853 20.6038 12.6201 20.6158 12.552C20.6277 12.4838 20.6261 12.414 20.611 12.3465C20.5959 12.279 20.5676 12.2151 20.5278 12.1585L18.8363 9.75609ZM15.5315 11.902H13.9004V7.78978C13.8941 7.6545 13.8359 7.52682 13.7378 7.43329C13.6397 7.33976 13.5093 7.28757 13.3736 7.28757C13.238 7.28757 13.1075 7.33976 13.0094 7.43329C12.9113 7.52682 12.8531 7.6545 12.8468 7.78978V12.4284C12.8468 12.7184 13.0815 12.9548 13.3731 12.9548H15.5315C15.6714 12.9548 15.8055 12.8994 15.9044 12.8006C16.0033 12.7019 16.0589 12.568 16.0589 12.4284C16.0589 12.2888 16.0033 12.1549 15.9044 12.0562C15.8055 11.9574 15.6714 11.902 15.5315 11.902ZM8.98796 10.6852L9.76554 8.78018L10.4783 10.684L8.98796 10.6852ZM11.8067 11.2283L11.8089 11.2105C11.8086 11.0779 11.7579 10.9503 11.6671 10.8536L10.4984 7.73067C10.4495 7.58185 10.3561 7.45149 10.231 7.35703C10.1058 7.26256 9.95473 7.20848 9.79794 7.202C9.64015 7.20193 9.48603 7.24951 9.35583 7.33849C9.22563 7.42746 9.12543 7.55368 9.0684 7.70055L7.21157 12.2455C7.15868 12.3748 7.1594 12.5197 7.21356 12.6484C7.26772 12.7772 7.37089 12.8792 7.50037 12.932C7.62986 12.9848 7.77505 12.9841 7.90401 12.93C8.03297 12.8759 8.13514 12.7729 8.18803 12.6437L8.55894 11.7369H10.8716L11.2045 12.6292C11.2272 12.6959 11.2631 12.7573 11.3101 12.8099C11.357 12.8625 11.414 12.9052 11.4778 12.9354C11.5416 12.9655 11.6107 12.9827 11.6812 12.9857C11.7517 12.9887 11.8221 12.9775 11.8882 12.9529C11.9543 12.9283 12.0148 12.8906 12.0661 12.8422C12.1174 12.7938 12.1584 12.7357 12.1867 12.6712C12.2151 12.6067 12.2301 12.5371 12.2311 12.4667C12.232 12.3962 12.2188 12.3263 12.1922 12.2611L11.8067 11.2283ZM8.09418 7.79535C8.09447 7.72623 8.08107 7.65774 8.05475 7.59381C8.02842 7.52988 7.98969 7.47178 7.94078 7.42285C7.89187 7.37392 7.83376 7.33513 7.76977 7.30872C7.70579 7.2823 7.63721 7.26878 7.56797 7.26892H3.94258C3.80272 7.26892 3.66859 7.32439 3.5697 7.42311C3.47081 7.52184 3.41525 7.65574 3.41525 7.79535C3.41525 7.93497 3.47081 8.06887 3.5697 8.1676C3.66859 8.26632 3.80272 8.32179 3.94258 8.32179H5.23856V12.4886C5.23856 12.6282 5.29411 12.7621 5.39301 12.8609C5.4919 12.9596 5.62603 13.0151 5.76589 13.0151C5.90574 13.0151 6.03987 12.9596 6.13876 12.8609C6.23766 12.7621 6.29322 12.6282 6.29322 12.4886V8.32179H7.56685C7.63618 8.32208 7.70489 8.30867 7.769 8.28232C7.83311 8.25596 7.89136 8.2172 7.94039 8.16826C7.98941 8.11931 8.02824 8.06116 8.05464 7.99716C8.08104 7.93316 8.09447 7.86457 8.09418 7.79535Z" fill="#452020"/>
<ellipse cx="12.128" cy="9.59148" rx="10.7622" ry="5.59636" fill="#452020"/>
</svg>
