<svg width="144" height="90" viewBox="0 0 144 90" fill="none" xmlns="http://www.w3.org/2000/svg">
<mask id="path-1-outside-1_139_731" maskUnits="userSpaceOnUse" x="105.135" y="29.8877" width="36" height="42" fill="black">
<rect fill="white" x="105.135" y="29.8877" width="36" height="42"/>
<path d="M123.953 70.6587C112.948 70.6587 106.149 62.8783 106.149 51.1727C106.149 39.4671 113.018 31.3363 123.392 31.3363C131.382 31.3363 139.794 36.2428 139.794 50.3316V52.855H112.177C112.457 60.9157 117.153 65.3316 123.953 65.3316C128.509 65.3316 131.382 63.369 132.784 60.9858H139.233C137.41 66.7335 131.803 70.6587 123.953 70.6587ZM112.247 47.7382H133.696C133.696 41.3597 129.63 36.6634 123.392 36.6634C116.803 36.6634 112.597 41.8503 112.247 47.7382Z"/>
</mask>
<path d="M123.953 70.6587C112.948 70.6587 106.149 62.8783 106.149 51.1727C106.149 39.4671 113.018 31.3363 123.392 31.3363C131.382 31.3363 139.794 36.2428 139.794 50.3316V52.855H112.177C112.457 60.9157 117.153 65.3316 123.953 65.3316C128.509 65.3316 131.382 63.369 132.784 60.9858H139.233C137.41 66.7335 131.803 70.6587 123.953 70.6587ZM112.247 47.7382H133.696C133.696 41.3597 129.63 36.6634 123.392 36.6634C116.803 36.6634 112.597 41.8503 112.247 47.7382Z" fill="#89E300"/>
<path d="M139.794 52.855V53.5727H140.511V52.855H139.794ZM112.177 52.855V52.1372H111.434L111.459 52.8799L112.177 52.855ZM132.784 60.9858V60.2681H132.374L132.166 60.6219L132.784 60.9858ZM139.233 60.9858L139.917 61.2028L140.213 60.2681H139.233V60.9858ZM112.247 47.7382L111.53 47.6955L111.485 48.4559H112.247V47.7382ZM133.696 47.7382V48.4559H134.413V47.7382H133.696ZM123.953 69.941C118.629 69.941 114.38 68.0647 111.457 64.8245C108.526 61.576 106.867 56.8895 106.867 51.1727H105.431C105.431 57.1615 107.171 62.218 110.391 65.7862C113.618 69.3626 118.272 71.3765 123.953 71.3765V69.941ZM106.867 51.1727C106.867 45.4571 108.543 40.675 111.424 37.3336C114.296 34.0015 118.406 32.054 123.392 32.054V30.6185C118.004 30.6185 113.492 32.7365 110.336 36.3962C107.189 40.0467 105.431 45.1828 105.431 51.1727H106.867ZM123.392 32.054C127.247 32.054 131.153 33.237 134.091 36.0676C137.021 38.8899 139.076 43.4341 139.076 50.3316H140.511C140.511 43.1403 138.36 38.1869 135.087 35.0337C131.822 31.8889 127.528 30.6185 123.392 30.6185V32.054ZM139.076 50.3316V52.855H140.511V50.3316H139.076ZM139.794 52.1372H112.177V53.5727H139.794V52.1372ZM111.459 52.8799C111.604 57.0436 112.894 60.3487 115.106 62.6172C117.322 64.8895 120.393 66.0494 123.953 66.0494V64.6139C120.713 64.6139 118.036 63.5658 116.134 61.615C114.228 59.6604 113.03 56.7271 112.894 52.83L111.459 52.8799ZM123.953 66.0494C128.735 66.0494 131.858 63.9756 133.403 61.3497L132.166 60.6219C130.907 62.7624 128.283 64.6139 123.953 64.6139V66.0494ZM132.784 61.7036H139.233V60.2681H132.784V61.7036ZM138.549 60.7689C136.84 66.1588 131.558 69.941 123.953 69.941V71.3765C132.048 71.3765 137.981 67.3082 139.917 61.2028L138.549 60.7689ZM112.247 48.4559H133.696V47.0204H112.247V48.4559ZM134.413 47.7382C134.413 44.3974 133.347 41.4479 131.414 39.3254C129.474 37.1967 126.702 35.9456 123.392 35.9456V37.3812C126.32 37.3812 128.7 38.4783 130.352 40.2922C132.011 42.1125 132.978 44.7004 132.978 47.7382H134.413ZM123.392 35.9456C116.349 35.9456 111.899 41.5077 111.53 47.6955L112.963 47.7808C113.296 42.1929 117.257 37.3812 123.392 37.3812V35.9456Z" fill="#89E300" mask="url(#path-1-outside-1_139_731)"/>
<mask id="path-3-outside-2_139_731" maskUnits="userSpaceOnUse" x="80.731" y="29.8877" width="33" height="42" fill="black">
<rect fill="white" x="80.731" y="29.8877" width="33" height="42"/>
<path d="M81.745 59.0933C81.745 50.3316 89.4553 48.369 96.044 47.8783C98.4623 47.7031 104.63 47.3877 106.348 47.3176V44.2335C106.348 39.397 103.474 36.5933 97.7263 36.5933C92.8898 36.5933 90.016 38.8363 89.1749 41.7101H82.8665C83.6375 35.612 89.5954 31.3363 98.0067 31.3363C102.983 31.3363 112.306 32.8083 112.306 44.7942V69.8877H106.348V64.7008H106.067C104.806 67.2942 101.301 70.7989 94.7123 70.7989C87.4926 70.7989 81.745 66.5232 81.745 59.0933ZM87.773 59.3737C87.773 63.369 91.1375 65.4017 95.7637 65.4017C102.563 65.4017 106.348 60.8456 106.348 56.0793V52.2241L96.745 52.9251C91.2777 53.2755 87.773 55.2382 87.773 59.3737Z"/>
</mask>
<path d="M81.745 59.0933C81.745 50.3316 89.4553 48.369 96.044 47.8783C98.4623 47.7031 104.63 47.3877 106.348 47.3176V44.2335C106.348 39.397 103.474 36.5933 97.7263 36.5933C92.8898 36.5933 90.016 38.8363 89.1749 41.7101H82.8665C83.6375 35.612 89.5954 31.3363 98.0067 31.3363C102.983 31.3363 112.306 32.8083 112.306 44.7942V69.8877H106.348V64.7008H106.067C104.806 67.2942 101.301 70.7989 94.7123 70.7989C87.4926 70.7989 81.745 66.5232 81.745 59.0933ZM87.773 59.3737C87.773 63.369 91.1375 65.4017 95.7637 65.4017C102.563 65.4017 106.348 60.8456 106.348 56.0793V52.2241L96.745 52.9251C91.2777 53.2755 87.773 55.2382 87.773 59.3737Z" fill="#89E300"/>
<path d="M96.044 47.8783L95.9922 47.1625L95.9907 47.1626L96.044 47.8783ZM106.348 47.3176L106.377 48.0348L107.066 48.0067V47.3176H106.348ZM89.1749 41.7101V42.4279H89.7127L89.8637 41.9117L89.1749 41.7101ZM82.8665 41.7101L82.1544 41.6201L82.0522 42.4279H82.8665V41.7101ZM112.306 69.8877V70.6055H113.023V69.8877H112.306ZM106.348 69.8877H105.63V70.6055H106.348V69.8877ZM106.348 64.7008H107.066V63.983H106.348V64.7008ZM106.067 64.7008V63.983H105.618L105.422 64.3868L106.067 64.7008ZM106.348 52.2241H107.066V51.4521L106.296 51.5083L106.348 52.2241ZM96.745 52.9251L96.7909 53.6414L96.7972 53.6409L96.745 52.9251ZM82.4627 59.0933C82.4627 54.9756 84.2483 52.5232 86.7924 51C89.3946 49.442 92.8296 48.8375 96.0973 48.5941L95.9907 47.1626C92.6697 47.4099 88.9552 48.032 86.055 49.7684C83.0968 51.5395 81.0272 54.4493 81.0272 59.0933H82.4627ZM96.0959 48.5942C98.5037 48.4198 104.664 48.1047 106.377 48.0348L106.319 46.6004C104.597 46.6707 98.4208 46.9865 95.9922 47.1625L96.0959 48.5942ZM107.066 47.3176V44.2335H105.63V47.3176H107.066ZM107.066 44.2335C107.066 41.6713 106.3 39.5448 104.675 38.0685C103.061 36.6022 100.707 35.8755 97.7263 35.8755V37.3111C100.493 37.3111 102.45 37.9862 103.71 39.131C104.959 40.2656 105.63 41.9592 105.63 44.2335H107.066ZM97.7263 35.8755C92.6596 35.8755 89.4393 38.2514 88.486 41.5085L89.8637 41.9117C90.5927 39.4211 93.12 37.3111 97.7263 37.3111V35.8755ZM89.1749 40.9924H82.8665V42.4279H89.1749V40.9924ZM83.5786 41.8002C84.287 36.1972 89.8002 32.054 98.0067 32.054V30.6185C89.3906 30.6185 82.988 35.0268 82.1544 41.6201L83.5786 41.8002ZM98.0067 32.054C100.447 32.054 103.858 32.4194 106.639 34.1772C109.363 35.8991 111.588 39.0223 111.588 44.7942H113.023C113.023 38.5802 110.587 34.9745 107.406 32.9638C104.282 30.9891 100.543 30.6185 98.0067 30.6185V32.054ZM111.588 44.7942V69.8877H113.023V44.7942H111.588ZM112.306 69.1699H106.348V70.6055H112.306V69.1699ZM107.066 69.8877V64.7008H105.63V69.8877H107.066ZM106.348 63.983H106.067V65.4185H106.348V63.983ZM105.422 64.3868C104.273 66.7483 101.01 70.0812 94.7123 70.0812V71.5167C101.592 71.5167 105.338 67.8401 106.713 65.0148L105.422 64.3868ZM94.7123 70.0812C91.239 70.0812 88.1728 69.0528 85.9874 67.1865C83.8145 65.331 82.4627 62.6073 82.4627 59.0933H81.0272C81.0272 63.0092 82.5493 66.1383 85.0552 68.2781C87.5484 70.4072 90.9659 71.5167 94.7123 71.5167V70.0812ZM87.0553 59.3737C87.0553 61.6029 88.0082 63.3284 89.6181 64.4712C91.1983 65.593 93.3588 66.1195 95.7637 66.1195V64.684C93.5424 64.684 91.7075 64.1941 90.449 63.3007C89.2201 62.4283 88.4908 61.1398 88.4908 59.3737H87.0553ZM95.7637 66.1195C102.935 66.1195 107.066 61.2653 107.066 56.0793H105.63C105.63 60.4259 102.19 64.684 95.7637 64.684V66.1195ZM107.066 56.0793V52.2241H105.63V56.0793H107.066ZM106.296 51.5083L96.6927 52.2092L96.7972 53.6409L106.4 52.94L106.296 51.5083ZM96.6991 52.2088C93.9085 52.3877 91.5188 52.9812 89.8075 54.1348C88.0536 55.3173 87.0553 57.063 87.0553 59.3737H88.4908C88.4908 57.5488 89.2447 56.2455 90.61 55.3251C92.0179 54.376 94.1142 53.813 96.7909 53.6414L96.6991 52.2088Z" fill="#89E300" mask="url(#path-3-outside-2_139_731)"/>
<rect x="106.006" y="59.3848" width="6.66078" height="23.686" rx="3.33039" fill="#89E300" stroke="#89E300" stroke-width="0.717757"/>
<mask id="path-6-outside-3_139_731" maskUnits="userSpaceOnUse" x="2.49512" y="20.041" width="40" height="53" fill="black">
<rect fill="white" x="2.49512" y="20.041" width="40" height="53"/>
<path d="M3.29886 26.9008V21.2934H41.5699V26.9008H25.6587V72.041H19.2802V26.9008H3.29886Z"/>
</mask>
<path d="M3.29886 26.9008V21.2934H41.5699V26.9008H25.6587V72.041H19.2802V26.9008H3.29886Z" fill="#89E300"/>
<path d="M3.29886 26.9008H2.5811V27.6186H3.29886V26.9008ZM3.29886 21.2934V20.5756H2.5811V21.2934H3.29886ZM41.5699 21.2934H42.2876V20.5756H41.5699V21.2934ZM41.5699 26.9008V27.6186H42.2876V26.9008H41.5699ZM25.6587 26.9008V26.1831H24.9409V26.9008H25.6587ZM25.6587 72.041V72.7588H26.3764V72.041H25.6587ZM19.2802 72.041H18.5624V72.7588H19.2802V72.041ZM19.2802 26.9008H19.9979V26.1831H19.2802V26.9008ZM4.01661 26.9008V21.2934H2.5811V26.9008H4.01661ZM3.29886 22.0111H41.5699V20.5756H3.29886V22.0111ZM40.8521 21.2934V26.9008H42.2876V21.2934H40.8521ZM41.5699 26.1831H25.6587V27.6186H41.5699V26.1831ZM24.9409 26.9008V72.041H26.3764V26.9008H24.9409ZM25.6587 71.3233H19.2802V72.7588H25.6587V71.3233ZM19.9979 72.041V26.9008H18.5624V72.041H19.9979ZM19.2802 26.1831H3.29886V27.6186H19.2802V26.1831Z" fill="#89E300" mask="url(#path-6-outside-3_139_731)"/>
<mask id="path-8-outside-4_139_731" maskUnits="userSpaceOnUse" x="35.5122" y="32.041" width="33" height="42" fill="black">
<rect fill="white" x="35.5122" y="32.041" width="33" height="42"/>
<path d="M36.5262 61.2466C36.5262 52.4849 44.2365 50.5223 50.8253 50.0317C53.2435 49.8564 59.4117 49.541 61.129 49.4709V46.3868C61.129 41.5504 58.2552 38.7466 52.5075 38.7466C47.6711 38.7466 44.7973 40.9896 43.9561 43.8634H37.6477C38.4187 37.7653 44.3767 33.4896 52.7879 33.4896C57.7645 33.4896 67.087 34.9616 67.087 46.9476V72.041H61.129V66.8541H60.8487C59.587 69.4476 56.0823 72.9522 49.4935 72.9522C42.2739 72.9522 36.5262 68.6765 36.5262 61.2466ZM42.5543 61.527C42.5543 65.5223 45.9187 67.555 50.5449 67.555C57.344 67.555 61.129 62.999 61.129 58.2326V54.3775L51.5262 55.0784C46.0589 55.4289 42.5543 57.3915 42.5543 61.527Z"/>
</mask>
<path d="M36.5262 61.2466C36.5262 52.4849 44.2365 50.5223 50.8253 50.0317C53.2435 49.8564 59.4117 49.541 61.129 49.4709V46.3868C61.129 41.5504 58.2552 38.7466 52.5075 38.7466C47.6711 38.7466 44.7973 40.9896 43.9561 43.8634H37.6477C38.4187 37.7653 44.3767 33.4896 52.7879 33.4896C57.7645 33.4896 67.087 34.9616 67.087 46.9476V72.041H61.129V66.8541H60.8487C59.587 69.4476 56.0823 72.9522 49.4935 72.9522C42.2739 72.9522 36.5262 68.6765 36.5262 61.2466ZM42.5543 61.527C42.5543 65.5223 45.9187 67.555 50.5449 67.555C57.344 67.555 61.129 62.999 61.129 58.2326V54.3775L51.5262 55.0784C46.0589 55.4289 42.5543 57.3915 42.5543 61.527Z" fill="#89E300"/>
<path d="M50.8253 50.0317L50.7734 49.3158L50.772 49.3159L50.8253 50.0317ZM61.129 49.4709L61.1583 50.1881L61.8468 50.16V49.4709H61.129ZM43.9561 43.8634V44.5812H44.4939L44.645 44.0651L43.9561 43.8634ZM37.6477 43.8634L36.9356 43.7734L36.8335 44.5812H37.6477V43.8634ZM67.087 72.041V72.7588H67.8047V72.041H67.087ZM61.129 72.041H60.4113V72.7588H61.129V72.041ZM61.129 66.8541H61.8468V66.1363H61.129V66.8541ZM60.8487 66.8541V66.1363H60.3996L60.2032 66.5401L60.8487 66.8541ZM61.129 54.3775H61.8468V53.6054L61.0768 53.6616L61.129 54.3775ZM51.5262 55.0784L51.5721 55.7947L51.5785 55.7943L51.5262 55.0784ZM37.244 61.2466C37.244 57.129 39.0296 54.6765 41.5737 53.1533C44.1758 51.5953 47.6108 50.9908 50.8786 50.7474L50.772 49.3159C47.451 49.5632 43.7364 50.1853 40.8363 51.9217C37.878 53.6929 35.8085 56.6026 35.8085 61.2466H37.244ZM50.8772 50.7476C53.285 50.5731 59.4449 50.258 61.1583 50.1881L61.0998 48.7538C59.3786 48.824 53.2021 49.1398 50.7734 49.3158L50.8772 50.7476ZM61.8468 49.4709V46.3868H60.4113V49.4709H61.8468ZM61.8468 46.3868C61.8468 43.8247 61.0813 41.6982 59.4563 40.2218C57.8424 38.7556 55.4882 38.0289 52.5075 38.0289V39.4644C55.2745 39.4644 57.231 40.1396 58.491 41.2843C59.7398 42.4189 60.4113 44.1125 60.4113 46.3868H61.8468ZM52.5075 38.0289C47.4409 38.0289 44.2206 40.4048 43.2673 43.6618L44.645 44.0651C45.3739 41.5745 47.9013 39.4644 52.5075 39.4644V38.0289ZM43.9561 43.1457H37.6477V44.5812H43.9561V43.1457ZM38.3598 43.9535C39.0682 38.3505 44.5815 34.2074 52.7879 34.2074V32.7719C44.1719 32.7719 37.7693 37.1801 36.9356 43.7734L38.3598 43.9535ZM52.7879 34.2074C55.2286 34.2074 58.6391 34.5728 61.4202 36.3306C64.1444 38.0524 66.3692 41.1756 66.3692 46.9476H67.8047C67.8047 40.7335 65.3683 37.1278 62.1872 35.1171C59.0629 33.1425 55.3239 32.7719 52.7879 32.7719V34.2074ZM66.3692 46.9476V72.041H67.8047V46.9476H66.3692ZM67.087 71.3233H61.129V72.7588H67.087V71.3233ZM61.8468 72.041V66.8541H60.4113V72.041H61.8468ZM61.129 66.1363H60.8487V67.5719H61.129V66.1363ZM60.2032 66.5401C59.0544 68.9017 55.7912 72.2345 49.4935 72.2345V73.67C56.3734 73.67 60.1196 69.9934 61.4941 67.1681L60.2032 66.5401ZM49.4935 72.2345C46.0202 72.2345 42.9541 71.2061 40.7686 69.3398C38.5957 67.4843 37.244 64.7607 37.244 61.2466H35.8085C35.8085 65.1625 37.3306 68.2917 39.8364 70.4315C42.3297 72.5605 45.7472 73.67 49.4935 73.67V72.2345ZM41.8365 61.527C41.8365 63.7562 42.7895 65.4818 44.3993 66.6245C45.9795 67.7463 48.14 68.2728 50.5449 68.2728V66.8373C48.3237 66.8373 46.4888 66.3474 45.2303 65.454C44.0013 64.5816 43.272 63.2931 43.272 61.527H41.8365ZM50.5449 68.2728C57.7167 68.2728 61.8468 63.4187 61.8468 58.2326H60.4113C60.4113 62.5793 56.9713 66.8373 50.5449 66.8373V68.2728ZM61.8468 58.2326V54.3775H60.4113V58.2326H61.8468ZM61.0768 53.6616L51.474 54.3625L51.5785 55.7943L61.1813 55.0933L61.0768 53.6616ZM51.4803 54.3621C48.6898 54.541 46.3 55.1345 44.5888 56.2882C42.8349 57.4706 41.8365 59.2163 41.8365 61.527H43.272C43.272 59.7022 44.026 58.3988 45.3912 57.4785C46.7992 56.5293 48.8954 55.9663 51.5721 55.7947L51.4803 54.3621Z" fill="#89E300" mask="url(#path-8-outside-4_139_731)"/>
<mask id="path-10-outside-5_139_731" maskUnits="userSpaceOnUse" x="60.4805" y="32.041" width="21" height="41" fill="black">
<rect fill="white" x="60.4805" y="32.041" width="21" height="41"/>
<path d="M61.3169 72.041V33.9803H67.1347V39.798H67.5552C68.9571 35.9429 72.8823 33.3494 77.3683 33.3494C78.2795 33.3494 79.8216 33.4195 80.5225 33.4896V39.5877C80.102 39.4476 78.4197 39.1672 76.8777 39.1672C71.4104 39.1672 67.345 42.9522 67.345 48.0691V72.041H61.3169Z"/>
</mask>
<path d="M61.3169 72.041V33.9803H67.1347V39.798H67.5552C68.9571 35.9429 72.8823 33.3494 77.3683 33.3494C78.2795 33.3494 79.8216 33.4195 80.5225 33.4896V39.5877C80.102 39.4476 78.4197 39.1672 76.8777 39.1672C71.4104 39.1672 67.345 42.9522 67.345 48.0691V72.041H61.3169Z" fill="#89E300"/>
<path d="M61.3169 72.041H60.5992V72.7588H61.3169V72.041ZM61.3169 33.9803V33.2625H60.5992V33.9803H61.3169ZM67.1347 33.9803H67.8524V33.2625H67.1347V33.9803ZM67.1347 39.798H66.4169V40.5158H67.1347V39.798ZM67.5552 39.798V40.5158H68.058L68.2298 40.0433L67.5552 39.798ZM80.5225 33.4896H81.2403V32.8401L80.5939 32.7754L80.5225 33.4896ZM80.5225 39.5877L80.2956 40.2687L81.2403 40.5836V39.5877H80.5225ZM67.345 72.041V72.7588H68.0627V72.041H67.345ZM62.0347 72.041V33.9803H60.5992V72.041H62.0347ZM61.3169 34.698H67.1347V33.2625H61.3169V34.698ZM66.4169 33.9803V39.798H67.8524V33.9803H66.4169ZM67.1347 40.5158H67.5552V39.0803H67.1347V40.5158ZM68.2298 40.0433C69.5172 36.5029 73.1497 34.0672 77.3683 34.0672V32.6317C72.615 32.6317 68.397 35.3829 66.8807 39.5527L68.2298 40.0433ZM77.3683 34.0672C78.2608 34.0672 79.7785 34.1365 80.4511 34.2038L80.5939 32.7754C79.8647 32.7025 78.2983 32.6317 77.3683 32.6317V34.0672ZM79.8048 33.4896V39.5877H81.2403V33.4896H79.8048ZM80.7495 38.9068C80.4683 38.8131 79.8826 38.7012 79.2143 38.6133C78.5267 38.5228 77.6882 38.4494 76.8777 38.4494V39.8849C77.6092 39.8849 78.3829 39.9518 79.027 40.0365C79.6905 40.1238 80.1562 40.2222 80.2956 40.2687L80.7495 38.9068ZM76.8777 38.4494C71.0617 38.4494 66.6272 42.5097 66.6272 48.0691H68.0627C68.0627 43.3947 71.7591 39.8849 76.8777 39.8849V38.4494ZM66.6272 48.0691V72.041H68.0627V48.0691H66.6272ZM67.345 71.3233H61.3169V72.7588H67.345V71.3233Z" fill="#89E300" mask="url(#path-10-outside-5_139_731)"/>
</svg>
