<svg width="24" height="15" viewBox="0 0 24 15" fill="none" xmlns="http://www.w3.org/2000/svg">
<path d="M11.7282 9.89231L11.8496 10.0188L11.971 9.89231L20.318 1.19172C20.318 1.19171 20.318 1.19171 20.318 1.1917C20.6033 0.894454 20.9886 0.728834 21.3888 0.728834C21.789 0.728834 22.1744 0.894461 22.4596 1.19172C22.745 1.4893 22.9065 1.89428 22.9065 2.31793C22.9065 2.7416 22.745 3.14658 22.4596 3.44417C22.4596 3.44417 22.4596 3.44418 22.4596 3.44418L12.9204 13.3874C12.6351 13.6847 12.2498 13.8503 11.8496 13.8503C11.4493 13.8503 11.064 13.6847 10.7788 13.3874L1.24155 3.44629C1.24122 3.44594 1.2409 3.44558 1.24057 3.44523C0.9638 3.14597 0.809593 2.74409 0.813082 2.32566C0.816576 1.90674 0.977827 1.50733 1.26009 1.21311C1.54213 0.919121 1.92218 0.753702 2.31794 0.750118C2.71324 0.746537 3.09549 0.904672 3.3822 1.1928C3.38253 1.19313 3.38286 1.19346 3.38319 1.19379L11.7282 9.89231Z" fill="#242933" stroke="#BEBEBE" stroke-width="0.336449"/>
</svg>
